<svg xmlns="http://www.w3.org/2000/svg" xmlns:xlink="http://www.w3.org/1999/xlink" version="1.1" x="0px" y="0px" viewBox="0 0 100 125" enable-background="new 0 0 100 100" xml:space="preserve"><g><rect x="-192" width="185" height="99"/><rect y="-36" width="100" height="30"/><text transform="matrix(1 0 0 1 66 -19.5)" fill="#000000" font-family="'Helvetica'" font-size="2.4">http://thenounproject.com</text><text transform="matrix(1 0 0 1 7.166 -24.5)"><tspan x="0" y="0" fill="#000000" font-family="'Helvetica-Bold'" font-size="6.1578">The Noun Project</tspan><tspan x="1.12" y="4.8" fill="#000000" font-family="'Helvetica-Bold'" font-size="4">Icon Template</tspan></text><text transform="matrix(1 0 0 1 -178.5 10.5)" fill="#000000" font-family="'Helvetica-Bold'" font-size="6.1578">Reminders</text><line fill="#000000" stroke="#FFFFFF" stroke-miterlimit="10" x1="8" y1="-14.5" x2="18" y2="-14.5"/><line fill="#000000" stroke="#FFFFFF" stroke-miterlimit="10" x1="-179" y1="16.5" x2="-162" y2="16.5"/><g><g><g><rect x="-170.802" y="31.318" fill="#000000" width="8.721" height="8.642"/><path fill="#000000" d="M-164.455,42.312h4.747v-4.703h-4.747V42.312z M-159.266,42.749h-5.63V37.17h5.63V42.749      L-159.266,42.749z M-166.221,44.062h8.279v-8.203h-8.279V44.062L-166.221,44.062z M-157.5,44.5h-9.163v-9.079h9.163V44.5      L-157.5,44.5z"/><polygon fill="#000000" points="-166.149,44.133 -166.292,43.991 -158.013,35.787 -157.871,35.929     "/></g></g></g><rect x="-179" y="58" fill="none" width="35" height="32.5"/><text transform="matrix(1 0 0 1 -179 60.1299)"><tspan x="0" y="0" fill="#000000" font-family="'Helvetica-Bold'" font-size="3">Strokes</tspan><tspan x="0" y="5" fill="#000000" font-family="'Helvetica'" font-size="2.4">Try to keep strokes at 4px</tspan><tspan x="0" y="10" fill="#000000" font-family="'Helvetica'" font-size="2.4">Minimum stroke weight is 2px</tspan><tspan x="0" y="14.5" fill="#000000" font-family="'Helvetica'" font-size="2.4">For thicker strokes use even </tspan><tspan x="0" y="17.5" fill="#000000" font-family="'Helvetica'" font-size="2.4">numbers: 6px, 8px etc.</tspan><tspan x="0" y="22" fill="#000000" font-family="'Helvetica-Bold'" font-size="2.4">Remember to expand strokes </tspan><tspan x="0" y="25" fill="#000000" font-family="'Helvetica-Bold'" font-size="2.4">before saving as an SVG </tspan></text><rect x="-136.5" y="58" fill="none" width="35" height="32.5"/><text transform="matrix(1 0 0 1 -136.5 60.1299)"><tspan x="0" y="0" fill="#000000" font-family="'Helvetica-Bold'" font-size="3">Size</tspan><tspan x="0" y="5" fill="#000000" font-family="'Helvetica'" font-size="2.4">Cannot be wider or taller than </tspan><tspan x="0" y="8.5" fill="#000000" font-family="'Helvetica'" font-size="2.4">100px (artboard size)</tspan><tspan x="0" y="13.5" fill="#000000" font-family="'Helvetica'" font-size="2.4">Scale your icon to fill as much of </tspan><tspan x="0" y="16.5" fill="#000000" font-family="'Helvetica'" font-size="2.4">the artboard as possible</tspan></text><rect x="-94" y="58" fill="none" width="35" height="32.5"/><text transform="matrix(1 0 0 1 -94 60.1299)"><tspan x="0" y="0" fill="#000000" font-family="'Helvetica-Bold'" font-size="3">Ungroup</tspan><tspan x="0" y="5" fill="#000000" font-family="'Helvetica'" font-size="2.4">If your design has more than one </tspan><tspan x="0" y="8" fill="#000000" font-family="'Helvetica'" font-size="2.4">shape, make sure to ungroup</tspan></text><rect x="-50" y="58" fill="none" width="35" height="32.5"/><text transform="matrix(1 0 0 1 -50 60.1299)"><tspan x="0" y="0" fill="#000000" font-family="'Helvetica-Bold'" font-size="3">Save as</tspan><tspan x="0" y="5" fill="#000000" font-family="'Helvetica'" font-size="2.4">Save as .SVG and make sure “Use </tspan><tspan x="0" y="8" fill="#000000" font-family="'Helvetica'" font-size="2.4">Artboards” is checked</tspan></text><text transform="matrix(1.0074 0 0 1 -125.542 30.5933)" fill="#000000" font-family="'Helvetica'" font-size="2.5731">100px</text><text transform="matrix(1.0074 0 0 1 -41 39)" fill="#000000" font-family="'Helvetica-Bold'" font-size="5.1462">.SVG</text><rect x="-126.514" y="34.815" fill="#000000" width="10.261" height="10.185"/><rect x="-126.477" y="31.766" fill="#000000" width="0.522" height="2.337"/><rect x="-116.813" y="31.766" fill="#000000" width="0.523" height="2.337"/><rect x="-127" y="32.337" fill="#000000" width="11.233" height="0.572"/><g><rect x="-83.805" y="33.844" fill="#000000" width="10.305" height="10.156"/><rect x="-76.809" y="28.707" fill="#000000" width="3.308" height="3.261"/></g><rect x="-178.5" y="22.5" fill="#000000" stroke="#FFFFFF" stroke-miterlimit="10" width="30" height="30"/><rect x="-136.5" y="22.5" fill="#000000" stroke="#FFFFFF" stroke-miterlimit="10" width="30" height="30"/><rect x="-93.5" y="22.5" fill="#000000" stroke="#FFFFFF" stroke-miterlimit="10" width="30" height="30"/><rect x="-49.5" y="22.5" fill="#000000" stroke="#FFFFFF" stroke-miterlimit="10" width="30" height="30"/></g><g><g><g><path d="M74.493,73.287c2.396,4.105,4.791,8.211,7.187,12.318c2.842,4.869,10.404,0.467,7.556-4.416     c-2.396-4.107-4.791-8.213-7.187-12.318C79.207,64,71.645,68.402,74.493,73.287L74.493,73.287z"/></g></g><g><g><path d="M81.934,54.898c-2.768,3.943-5.535,7.887-8.303,11.83c-1.372,1.955-0.359,4.855,1.57,5.986     c2.186,1.281,4.618,0.379,5.985-1.57c2.768-3.943,5.535-7.887,8.303-11.83c1.372-1.956,0.359-4.856-1.569-5.986     C85.732,52.047,83.301,52.95,81.934,54.898L81.934,54.898z"/></g></g><g><g><path d="M68.613,50.246c-4.174,5.121-8.348,10.24-12.521,15.361c-3.533,4.334,2.619,10.564,6.188,6.188     c4.174-5.121,8.348-10.24,12.521-15.361C78.334,52.1,72.182,45.87,68.613,50.246L68.613,50.246z"/></g></g><g><g><path d="M54.506,69.223c-1.313,4.568-2.627,9.137-3.941,13.705c-1.563,5.436,6.88,7.738,8.437,2.326     c1.314-4.568,2.628-9.137,3.941-13.705C64.507,66.115,56.063,63.811,54.506,69.223L54.506,69.223z"/></g></g><polygon stroke="#000000" stroke-width="1.75" stroke-miterlimit="10" points="75.305,55.609 87.643,53.582 75.797,29.605    62.025,39.848  "/><rect x="71.102" y="50.288" transform="matrix(-0.9362 -0.3514 0.3514 -0.9362 132.973 130.6564)" stroke="#000000" stroke-width="1.75" stroke-miterlimit="10" width="14.48" height="5.95"/><g><g><path d="M67.927,33.202c-6.097,1.684-12.192,3.368-18.289,5.052c-3.88,1.072-2.23,7.102,1.661,6.026     c6.097-1.684,12.193-3.368,18.289-5.052C73.468,38.157,71.818,32.127,67.927,33.202L67.927,33.202z"/></g></g><g><g><path d="M49.289,38.442c-4.658-0.486-9.315-0.972-13.973-1.458c-4.007-0.418-3.967,5.836,0,6.25     c4.658,0.486,9.315,0.972,13.973,1.458C53.296,45.11,53.256,38.855,49.289,38.442c-4.658-0.486-9.315-0.972-13.973-1.458     c-4.007-0.418-3.967,5.836,0,6.25c4.658,0.486,9.315,0.972,13.973,1.458C53.296,45.11,53.256,38.855,49.289,38.442z"/></g></g><path fill="none" stroke="#000000" stroke-width="1.25" stroke-miterlimit="10" d="M10.354,34.374   c0,1.214,5.268,2.196,11.758,2.196c6.492,0,11.758-0.982,11.758-2.196c0-1.212-5.266-2.196-11.758-2.196   C15.622,32.178,10.354,33.162,10.354,34.374z"/><path fill="none" stroke="#000000" stroke-width="1.25" stroke-miterlimit="10" d="M33.87,34.374c0,0,3.54,4.961-11.758,4.789   c-15.297-0.17-11.758-4.789-11.758-4.789"/><g><g><path d="M72.829,26.788c-4.017,1.595-8.034,3.189-12.051,4.785c-3.7,1.469-2.089,7.515,1.661,6.026     c4.018-1.595,8.034-3.189,12.051-4.785C78.189,31.345,76.578,25.299,72.829,26.788L72.829,26.788z"/></g></g><path fill="#000000" d="M59.842,27.065c3.846,0,6.951-3.153,6.951-7.037c0-3.874-3.105-7.028-6.951-7.028   c-3.832,0-6.951,3.154-6.951,7.028C52.891,23.913,56.01,27.065,59.842,27.065"/><path fill="none" d="M38.98,36.717c0,2.12-1.351,3.92-3.24,4.57c-0.22,0.08-0.45,0.15-0.689,0.19   c-0.301,0.06-0.601,0.09-0.921,0.09c-2.68,0-4.85-2.17-4.85-4.85c0-2.68,2.17-4.86,4.85-4.86   C36.81,31.857,38.98,34.037,38.98,36.717z"/></g></svg>